<svg width="98" height="74" viewBox="0 0 98 74" fill="none" xmlns="http://www.w3.org/2000/svg">
<rect width="98" height="66" fill="white"/>
<path d="M33.4061 24.624V24.988C33.7795 25.156 34.0875 25.4313 34.3301 25.814C34.5821 26.1967 34.7081 26.626 34.7081 27.102C34.7081 27.9793 34.4188 28.684 33.8401 29.216C33.2615 29.7387 32.4028 30 31.2641 30H26.4481V20.004H31.1381C32.1928 20.004 33.0048 20.256 33.5741 20.76C34.1435 21.264 34.4281 21.894 34.4281 22.65C34.4281 23.098 34.3348 23.4993 34.1481 23.854C33.9708 24.1993 33.7235 24.456 33.4061 24.624ZM28.5341 23.966H30.8861C31.8195 23.966 32.2861 23.5927 32.2861 22.846C32.2861 22.1087 31.8148 21.74 30.8721 21.74H28.5341V23.966ZM28.5341 28.222H30.9561C32.0295 28.222 32.5661 27.8113 32.5661 26.99C32.5661 26.1407 32.0388 25.716 30.9841 25.716H28.5341V28.222ZM38.441 21.572H36.453V19.822H38.441V21.572ZM38.427 22.804V30H36.467V22.804H38.427ZM47.4995 28.376H48.7735V32.002H46.9255V30H41.5915V32.002H39.7435V28.376H40.8075C41.2275 27.3027 41.4375 26.136 41.4375 24.876V22.804H47.4995V28.376ZM45.5395 28.376V24.442H43.2015V24.89C43.2015 26.2247 43.0242 27.3867 42.6695 28.376H45.5395ZM57.9038 28.376H59.1778V32.002H57.3298V30H51.9958V32.002H50.1478V28.376H51.2118C51.6318 27.3027 51.8418 26.136 51.8418 24.876V22.804H57.9038V28.376ZM55.9438 28.376V24.442H53.6058V24.89C53.6058 26.2247 53.4285 27.3867 53.0738 28.376H55.9438ZM62.6129 21.572H60.6249V19.822H62.6129V21.572ZM62.5989 22.804V30H60.6389V22.804H62.5989ZM63.9574 30V28.124H64.2094C64.6761 28.124 65.0121 27.9607 65.2174 27.634C65.4227 27.298 65.5254 26.696 65.5254 25.828V22.804H71.6714V30H69.7114V24.442H67.3314V25.898C67.3314 27.4007 67.0841 28.46 66.5894 29.076C66.0947 29.692 65.3014 30 64.2094 30H63.9574ZM22.2925 47H20.3325V41.442H17.3925V47H15.4325V39.804H22.2925V47ZM28.0002 41.26C27.4216 41.26 26.9829 41.4653 26.6842 41.876C26.3949 42.2773 26.2502 42.786 26.2502 43.402C26.2502 44.018 26.3949 44.5313 26.6842 44.942C26.9829 45.3527 27.4216 45.558 28.0002 45.558C28.5602 45.558 28.9849 45.3573 29.2742 44.956C29.5729 44.5547 29.7222 44.0367 29.7222 43.402C29.7222 42.7767 29.5729 42.2633 29.2742 41.862C28.9849 41.4607 28.5602 41.26 28.0002 41.26ZM24.3602 39.804H26.2502V40.462H26.6142C27.0622 39.902 27.7342 39.622 28.6302 39.622C29.5636 39.622 30.3056 39.9767 30.8562 40.686C31.4069 41.386 31.6822 42.2913 31.6822 43.402C31.6822 44.522 31.4069 45.432 30.8562 46.132C30.3056 46.832 29.5636 47.182 28.6302 47.182C27.7529 47.182 27.1042 46.902 26.6842 46.342H26.3202V49.8H24.3602V39.804ZM36.6606 39.622C37.7993 39.622 38.7046 39.9673 39.3766 40.658C40.0486 41.3487 40.3846 42.2633 40.3846 43.402C40.3846 44.5407 40.0486 45.4553 39.3766 46.146C38.7046 46.8367 37.7993 47.182 36.6606 47.182C35.5313 47.182 34.626 46.8367 33.9446 46.146C33.2726 45.446 32.9366 44.5313 32.9366 43.402C32.9366 42.2727 33.2726 41.3627 33.9446 40.672C34.626 39.972 35.5313 39.622 36.6606 39.622ZM36.6606 45.558C37.2486 45.558 37.6873 45.3573 37.9766 44.956C38.2753 44.5453 38.4246 44.0273 38.4246 43.402C38.4246 42.786 38.2753 42.2773 37.9766 41.876C37.6873 41.4653 37.2486 41.26 36.6606 41.26C36.082 41.26 35.6433 41.4653 35.3446 41.876C35.046 42.2773 34.8966 42.786 34.8966 43.402C34.8966 44.0273 35.046 44.5453 35.3446 44.956C35.6433 45.3573 36.082 45.558 36.6606 45.558ZM49.0376 45.376H50.3116V49.002H48.4636V47H43.1296V49.002H41.2816V45.376H42.3456C42.7656 44.3027 42.9756 43.136 42.9756 41.876V39.804H49.0376V45.376ZM47.0776 45.376V41.442H44.7396V41.89C44.7396 43.2247 44.5623 44.3867 44.2076 45.376H47.0776ZM56.1827 47V46.384H55.8187C55.3613 46.916 54.6893 47.182 53.8027 47.182C53.0187 47.182 52.398 46.9533 51.9407 46.496C51.4833 46.0293 51.2547 45.46 51.2547 44.788C51.2547 44.144 51.4973 43.584 51.9827 43.108C52.468 42.632 53.2007 42.394 54.1807 42.394H56.0987V42.212C56.0987 41.4653 55.674 41.092 54.8247 41.092C54.0687 41.092 53.6627 41.3487 53.6067 41.862H51.6607C51.6793 41.1807 51.9733 40.6393 52.5427 40.238C53.112 39.8273 53.84 39.622 54.7267 39.622C55.7533 39.622 56.5513 39.8413 57.1207 40.28C57.6993 40.7187 57.9887 41.4 57.9887 42.324V47H56.1827ZM54.4887 45.628C54.9647 45.628 55.352 45.488 55.6507 45.208C55.9493 44.928 56.0987 44.564 56.0987 44.116V43.668H54.5587C53.6627 43.668 53.2147 43.99 53.2147 44.634C53.2147 45.2967 53.6393 45.628 54.4887 45.628ZM62.7058 44.144L61.4038 47H59.4158L61.1098 43.304L59.5278 39.804H61.4878L62.7058 42.506H64.0918V39.804H65.9118V42.506H67.2838L68.5018 39.804H70.4758L68.8798 43.304L70.5878 47H68.5858L67.2838 44.144H65.9118V47H64.0918V44.144H62.7058ZM74.0904 38.572H72.1024V36.822H74.0904V38.572ZM74.0764 39.804V47H72.1164V39.804H74.0764ZM81.721 43.01V43.374C82.085 43.4673 82.379 43.654 82.603 43.934C82.827 44.214 82.939 44.5733 82.939 45.012C82.939 46.3373 82.0896 47 80.391 47H76.163V39.804H80.279C80.9976 39.804 81.553 39.9673 81.945 40.294C82.3463 40.6113 82.547 41.0547 82.547 41.624C82.547 42.2773 82.2716 42.7393 81.721 43.01ZM78.081 45.586H79.943C80.6243 45.586 80.965 45.32 80.965 44.788C80.965 44.2467 80.6243 43.976 79.943 43.976H78.081V45.586ZM78.081 41.218V42.604H79.747C80.307 42.604 80.587 42.3753 80.587 41.918C80.587 41.4513 80.307 41.218 79.747 41.218H78.081Z" fill="#141414"/>
<path d="M49 74L43 66L55 66L49 74Z" fill="white"/>
</svg>
