<svg width="88" height="74" viewBox="0 0 88 74" fill="none" xmlns="http://www.w3.org/2000/svg">
<rect width="88" height="66" fill="#141414"/>
<path d="M22.0802 20.004H24.1662V26.318C24.1662 27.5593 23.8022 28.516 23.0742 29.188C22.3555 29.8507 21.3195 30.182 19.9662 30.182C18.6315 30.182 17.6002 29.8507 16.8722 29.188C16.1535 28.516 15.7942 27.5593 15.7942 26.318V20.004H17.8802V26.276C17.8802 26.9013 18.0622 27.4007 18.4262 27.774C18.7995 28.138 19.3175 28.32 19.9802 28.32C20.6522 28.32 21.1702 28.138 21.5342 27.774C21.8982 27.4007 22.0802 26.9013 22.0802 26.276V20.004ZM28.6429 22.804H30.2249V24.442H28.6429V27.536C28.6429 28.068 28.9509 28.334 29.5669 28.334H30.2249V30H29.5389C28.6335 30 27.9289 29.8367 27.4249 29.51C26.9302 29.174 26.6829 28.5953 26.6829 27.774V24.442H25.6329V22.804H26.6829V20.788H28.6429V22.804ZM32.0067 19.822H33.9667V30H32.0067V19.822ZM40.4639 30V29.384H40.0999C39.6426 29.916 38.9706 30.182 38.0839 30.182C37.2999 30.182 36.6792 29.9533 36.2219 29.496C35.7646 29.0293 35.5359 28.46 35.5359 27.788C35.5359 27.144 35.7786 26.584 36.2639 26.108C36.7492 25.632 37.4819 25.394 38.4619 25.394H40.3799V25.212C40.3799 24.4653 39.9552 24.092 39.1059 24.092C38.3499 24.092 37.9439 24.3487 37.8879 24.862H35.9419C35.9606 24.1807 36.2546 23.6393 36.8239 23.238C37.3932 22.8273 38.1212 22.622 39.0079 22.622C40.0346 22.622 40.8326 22.8413 41.4019 23.28C41.9806 23.7187 42.2699 24.4 42.2699 25.324V30H40.4639ZM38.7699 28.628C39.2459 28.628 39.6332 28.488 39.9319 28.208C40.2306 27.928 40.3799 27.564 40.3799 27.116V26.668H38.8399C37.9439 26.668 37.4959 26.99 37.4959 27.634C37.4959 28.2967 37.9206 28.628 38.7699 28.628ZM51.159 30H49.199V25.926C49.199 25.422 49.0777 25.0347 48.835 24.764C48.6017 24.4933 48.2564 24.358 47.799 24.358C47.323 24.358 46.9357 24.5353 46.637 24.89C46.3477 25.2447 46.203 25.674 46.203 26.178V30H44.243V22.804H46.133V23.462H46.497C46.9357 22.902 47.603 22.622 48.499 22.622C49.3857 22.622 50.0484 22.8787 50.487 23.392C50.935 23.9053 51.159 24.6333 51.159 25.576V30ZM55.7758 22.622C56.6531 22.622 57.3018 22.902 57.7218 23.462H58.0858V19.822H60.0458V30H58.1558V29.342H57.7918C57.3438 29.902 56.6718 30.182 55.7758 30.182C54.8424 30.182 54.1004 29.832 53.5498 29.132C52.9991 28.4227 52.7238 27.5127 52.7238 26.402C52.7238 25.2913 52.9991 24.386 53.5498 23.686C54.1004 22.9767 54.8424 22.622 55.7758 22.622ZM56.4058 28.558C56.9844 28.558 57.4184 28.3527 57.7078 27.942C58.0064 27.5313 58.1558 27.018 58.1558 26.402C58.1558 25.786 58.0064 25.2773 57.7078 24.876C57.4184 24.4653 56.9844 24.26 56.4058 24.26C55.8458 24.26 55.4164 24.4607 55.1178 24.862C54.8284 25.2633 54.6838 25.7767 54.6838 26.402C54.6838 27.0367 54.8284 27.5547 55.1178 27.956C55.4164 28.3573 55.8458 28.558 56.4058 28.558ZM64.1002 21.572H62.1122V19.822H64.1002V21.572ZM64.0862 22.804V30H62.1262V22.804H64.0862ZM70.5967 30V29.384H70.2327C69.7754 29.916 69.1034 30.182 68.2167 30.182C67.4327 30.182 66.8121 29.9533 66.3547 29.496C65.8974 29.0293 65.6687 28.46 65.6687 27.788C65.6687 27.144 65.9114 26.584 66.3967 26.108C66.8821 25.632 67.6147 25.394 68.5947 25.394H70.5127V25.212C70.5127 24.4653 70.0881 24.092 69.2387 24.092C68.4827 24.092 68.0767 24.3487 68.0207 24.862H66.0747C66.0934 24.1807 66.3874 23.6393 66.9567 23.238C67.5261 22.8273 68.2541 22.622 69.1407 22.622C70.1674 22.622 70.9654 22.8413 71.5347 23.28C72.1134 23.7187 72.4027 24.4 72.4027 25.324V30H70.5967ZM68.9027 28.628C69.3787 28.628 69.7661 28.488 70.0647 28.208C70.3634 27.928 70.5127 27.564 70.5127 27.116V26.668H68.9727C68.0767 26.668 67.6287 26.99 67.6287 27.634C67.6287 28.2967 68.0534 28.628 68.9027 28.628ZM42.45 40.154H40.434C40.49 39.1367 40.8354 38.3573 41.47 37.816C42.1047 37.2747 42.954 37.004 44.018 37.004C45.026 37.004 45.8427 37.284 46.468 37.844C47.1027 38.3947 47.42 39.1647 47.42 40.154C47.42 41.302 46.8134 42.3473 45.6 43.29L43.542 44.886V45.25H47.686V47H40.448V44.9L43.808 42.394C44.2934 42.0487 44.676 41.7033 44.956 41.358C45.2454 41.0033 45.39 40.616 45.39 40.196C45.39 39.7387 45.2594 39.3933 44.998 39.16C44.746 38.9173 44.4007 38.796 43.962 38.796C43.0474 38.796 42.5434 39.2487 42.45 40.154Z" fill="white"/>
<path d="M44 74L38 66L50 66L44 74Z" fill="#141414"/>
</svg>
