<svg width="88" height="74" viewBox="0 0 88 74" fill="none" xmlns="http://www.w3.org/2000/svg">
<rect width="88" height="66" fill="#141414"/>
<path d="M22.0802 28.504H24.1662V34.818C24.1662 36.0593 23.8022 37.016 23.0742 37.688C22.3555 38.3507 21.3195 38.682 19.9662 38.682C18.6315 38.682 17.6002 38.3507 16.8722 37.688C16.1535 37.016 15.7942 36.0593 15.7942 34.818V28.504H17.8802V34.776C17.8802 35.4013 18.0622 35.9007 18.4262 36.274C18.7995 36.638 19.3175 36.82 19.9802 36.82C20.6522 36.82 21.1702 36.638 21.5342 36.274C21.8982 35.9007 22.0802 35.4013 22.0802 34.776V28.504ZM28.6429 31.304H30.2249V32.942H28.6429V36.036C28.6429 36.568 28.9509 36.834 29.5669 36.834H30.2249V38.5H29.5389C28.6335 38.5 27.9289 38.3367 27.4249 38.01C26.9302 37.674 26.6829 37.0953 26.6829 36.274V32.942H25.6329V31.304H26.6829V29.288H28.6429V31.304ZM32.0067 28.322H33.9667V38.5H32.0067V28.322ZM40.4639 38.5V37.884H40.0999C39.6426 38.416 38.9706 38.682 38.0839 38.682C37.2999 38.682 36.6792 38.4533 36.2219 37.996C35.7646 37.5293 35.5359 36.96 35.5359 36.288C35.5359 35.644 35.7786 35.084 36.2639 34.608C36.7492 34.132 37.4819 33.894 38.4619 33.894H40.3799V33.712C40.3799 32.9653 39.9552 32.592 39.1059 32.592C38.3499 32.592 37.9439 32.8487 37.8879 33.362H35.9419C35.9606 32.6807 36.2546 32.1393 36.8239 31.738C37.3932 31.3273 38.1212 31.122 39.0079 31.122C40.0346 31.122 40.8326 31.3413 41.4019 31.78C41.9806 32.2187 42.2699 32.9 42.2699 33.824V38.5H40.4639ZM38.7699 37.128C39.2459 37.128 39.6332 36.988 39.9319 36.708C40.2306 36.428 40.3799 36.064 40.3799 35.616V35.168H38.8399C37.9439 35.168 37.4959 35.49 37.4959 36.134C37.4959 36.7967 37.9206 37.128 38.7699 37.128ZM51.159 38.5H49.199V34.426C49.199 33.922 49.0777 33.5347 48.835 33.264C48.6017 32.9933 48.2564 32.858 47.799 32.858C47.323 32.858 46.9357 33.0353 46.637 33.39C46.3477 33.7447 46.203 34.174 46.203 34.678V38.5H44.243V31.304H46.133V31.962H46.497C46.9357 31.402 47.603 31.122 48.499 31.122C49.3857 31.122 50.0484 31.3787 50.487 31.892C50.935 32.4053 51.159 33.1333 51.159 34.076V38.5ZM55.7758 31.122C56.6531 31.122 57.3018 31.402 57.7218 31.962H58.0858V28.322H60.0458V38.5H58.1558V37.842H57.7918C57.3438 38.402 56.6718 38.682 55.7758 38.682C54.8424 38.682 54.1004 38.332 53.5498 37.632C52.9991 36.9227 52.7238 36.0127 52.7238 34.902C52.7238 33.7913 52.9991 32.886 53.5498 32.186C54.1004 31.4767 54.8424 31.122 55.7758 31.122ZM56.4058 37.058C56.9844 37.058 57.4184 36.8527 57.7078 36.442C58.0064 36.0313 58.1558 35.518 58.1558 34.902C58.1558 34.286 58.0064 33.7773 57.7078 33.376C57.4184 32.9653 56.9844 32.76 56.4058 32.76C55.8458 32.76 55.4164 32.9607 55.1178 33.362C54.8284 33.7633 54.6838 34.2767 54.6838 34.902C54.6838 35.5367 54.8284 36.0547 55.1178 36.456C55.4164 36.8573 55.8458 37.058 56.4058 37.058ZM64.1002 30.072H62.1122V28.322H64.1002V30.072ZM64.0862 31.304V38.5H62.1262V31.304H64.0862ZM70.5967 38.5V37.884H70.2327C69.7754 38.416 69.1034 38.682 68.2167 38.682C67.4327 38.682 66.8121 38.4533 66.3547 37.996C65.8974 37.5293 65.6687 36.96 65.6687 36.288C65.6687 35.644 65.9114 35.084 66.3967 34.608C66.8821 34.132 67.6147 33.894 68.5947 33.894H70.5127V33.712C70.5127 32.9653 70.0881 32.592 69.2387 32.592C68.4827 32.592 68.0767 32.8487 68.0207 33.362H66.0747C66.0934 32.6807 66.3874 32.1393 66.9567 31.738C67.5261 31.3273 68.2541 31.122 69.1407 31.122C70.1674 31.122 70.9654 31.3413 71.5347 31.78C72.1134 32.2187 72.4027 32.9 72.4027 33.824V38.5H70.5967ZM68.9027 37.128C69.3787 37.128 69.7661 36.988 70.0647 36.708C70.3634 36.428 70.5127 36.064 70.5127 35.616V35.168H68.9727C68.0767 35.168 67.6287 35.49 67.6287 36.134C67.6287 36.7967 68.0534 37.128 68.9027 37.128Z" fill="white"/>
<path d="M44 74L38 66L50 66L44 74Z" fill="#141414"/>
</svg>
