<svg width="64" height="64" viewBox="0 0 64 64" fill="none" xmlns="http://www.w3.org/2000/svg">
<path d="M8.53449 42.3965L2 48.931L15.069 62L21.6035 55.4655M8.53449 42.3965L21.6035 55.4655M8.53449 42.3965L18.3362 17.3476L46.6524 45.6638L21.6035 55.4655M42.296 32.5948C43.7402 31.1506 44.5516 29.1918 44.5516 27.1494C44.5516 25.1069 43.7402 23.1482 42.296 21.704C40.8518 20.2598 38.8931 19.4484 36.8506 19.4484C34.8082 19.4484 32.8494 20.2597 31.4052 21.704M52.0978 46.7528C50.8948 47.9558 48.9444 47.9558 47.7414 46.7528L17.2471 16.2586C16.0442 15.0556 16.0442 13.1052 17.2471 11.9022C18.4501 10.6993 20.4005 10.6993 21.6035 11.9022L52.0978 42.3965C53.3007 43.5995 53.3007 45.5499 52.0978 46.7528Z" stroke="#141414"/>
<path d="M56 8L48 16" stroke="#141414" stroke-linejoin="bevel"/>
<path d="M36 12L36 4" stroke="#141414" stroke-linejoin="bevel"/>
<path d="M54 28L62 28" stroke="#141414" stroke-linejoin="bevel"/>
</svg>
