<svg width="107" height="40" viewBox="0 0 107 40" fill="none" xmlns="http://www.w3.org/2000/svg">
<path fill-rule="evenodd" clip-rule="evenodd" d="M1 26.2362L27.752 1H37.0841V39H27.2179V33.5306H10.4532L20.1597 24.3838H27.3666V14.5993L1 39V26.2362Z" fill="#ED1C24"/>
<path fill-rule="evenodd" clip-rule="evenodd" d="M39.2651 1H73.5874L64.1782 10.3777H57.4393V39H47.419V10.3777H39.2651V1Z" fill="#ED1C24"/>
<path fill-rule="evenodd" clip-rule="evenodd" d="M67.2512 10.2293L76.5778 1H106L96.6073 10.3777H76.7154V29.7707H88.5416C89.1573 29.7707 89.748 29.5273 90.1844 29.0936C90.6209 28.6599 90.8675 28.0713 90.8704 27.4565V27.0882C90.8675 26.4735 90.6209 25.8849 90.1844 25.4512C89.748 25.0175 89.1573 24.774 88.5416 24.774H78.7525V15.5448H92.3955C92.3955 15.5448 100.197 17.1938 100.197 27.2751C100.197 37.3564 92.3625 39 92.3625 39H67.2347L67.2512 10.2293Z" fill="#ED1C24"/>
</svg>
