<svg width="177" height="92" viewBox="0 0 177 92" fill="none" xmlns="http://www.w3.org/2000/svg">
<g clip-path="url(#clip0_508_3981)">
<path d="M42.2732 51.6182C35.4584 51.6182 29.9326 46.059 29.9326 39.2051C29.9326 32.3512 35.4584 26.7953 42.2732 26.7953C44.8534 26.7953 47.2483 27.5916 49.2286 28.9543C53.3574 21.0379 59.7955 14.5337 67.6428 10.3449C60.4621 3.91279 51.0014 0 40.6285 0C18.1907 0 0 18.2935 0 40.8603C0 63.4283 18.1907 81.7203 40.6285 81.7203C45.8341 81.7203 50.8099 80.7383 55.3839 78.9414C48.8471 71.5739 44.7274 61.9898 44.2647 51.4538C43.6182 51.56 42.9539 51.6182 42.2732 51.6182Z" fill="#0B4171"/>
<path d="M76.8515 45.5867C76.8515 39.6998 80.1052 34.5748 84.9026 31.9324L68.5896 11.8219C55.1341 18.9361 45.957 33.1304 45.957 49.4812C45.957 72.9644 64.8853 92.0015 88.2375 92.0015C90.1737 92.0015 92.0794 91.8679 93.9487 91.6157V61.054C93.4143 61.1119 92.8697 61.1404 92.3189 61.1404C83.7756 61.1404 76.8515 54.1756 76.8515 45.5867Z" fill="#0B4171"/>
<path fill-rule="evenodd" clip-rule="evenodd" d="M92.3833 53.2274C87.5461 53.2266 84.5145 50.1043 84.5156 45.9034C84.5171 41.7061 87.5494 38.3641 92.3855 38.3641C93.2912 38.3641 102.003 38.3202 102.003 38.3202L102 53.2281L92.3833 53.2274ZM95.4771 44.2888H92.724C92.0568 44.4488 91.5555 45.0126 91.5555 45.7346C91.5555 46.4603 92.0553 47.1526 92.724 47.3141H92.9843C93.0165 47.318 93.0963 47.3163 93.1555 47.315L93.1924 47.3143L93.2115 47.3141L93.2783 47.3147C93.3962 47.3159 93.6219 47.3183 93.6588 47.3141H95.4753L95.4771 44.2888Z" fill="#0B4171"/>
<path fill-rule="evenodd" clip-rule="evenodd" d="M117.664 45.4143V45.3729C119.963 44.9478 120.615 43.2556 120.634 41.8607C120.656 40.4236 120.014 38.1851 115.908 38.3382L104.003 38.3345L104 53.234L117.011 53.2355C119.652 53.2688 121.155 51.41 121.175 49.2762C121.199 46.6547 119.233 45.6215 117.664 45.4143ZM113.977 44.2987C113.975 44.2987 113.975 44.2976 113.973 44.2976L110.696 44.2961V43.3025L113.982 43.3032C114.237 43.3069 114.443 43.5273 114.443 43.8004C114.443 44.0761 114.235 44.2987 113.977 44.2987ZM113.977 48.3034L113.974 48.3029C113.973 48.3025 113.97 48.3019 113.968 48.3019L110.696 48.3008V47.3233H113.963C113.966 47.3233 113.968 47.3224 113.97 47.3215L113.972 47.3206C113.974 47.32 113.975 47.3196 113.977 47.3196C114.235 47.3196 114.443 47.5411 114.443 47.8124C114.443 48.0841 114.235 48.3034 113.977 48.3034Z" fill="#0B4171"/>
<path d="M171.574 45.4164C176.153 47.5564 177.041 52.9854 176.999 53.2515L168.54 53.2493C168.553 53.1384 168.582 52.5182 168.582 52.4003C168.584 50.5697 167.102 48.3154 164.994 48.3154H164.327V53.2493L156.422 53.2457L156.426 38.348L164.33 38.3499L164.329 43.3167H164.594C164.613 43.3167 164.626 43.317 164.636 43.3173C164.646 43.3177 164.653 43.3181 164.66 43.3185C164.695 43.3206 164.734 43.323 165.021 43.3167C166.746 42.9832 167.74 40.9204 167.742 39.39C167.742 39.2721 167.73 38.4641 167.718 38.3517L176.065 38.3535C176.129 38.7522 175.473 43.7297 171.574 45.4164Z" fill="#0B4171"/>
<path d="M140.137 38.3397V53.2758L141.773 53.2828L148.7 53.2377H154.428V48.3042H148.039V48.3005H148.034C147.78 48.3005 147.573 48.0838 147.573 47.8151C147.573 47.5471 147.78 47.3281 148.034 47.3281C148.035 47.3281 148.036 47.3284 148.036 47.3286C148.037 47.3288 148.037 47.3289 148.038 47.3291C148.038 47.3292 148.039 47.3292 148.039 47.3292V47.3248H154.428V44.2984H148.039V44.2937C148.036 44.2937 148.032 44.2959 148.03 44.2959C147.771 44.2959 147.563 44.0751 147.563 43.8031C147.563 43.5314 147.771 43.3121 148.03 43.3121C148.031 43.3121 148.034 43.3124 148.036 43.3126L148.039 43.3128V43.3059H154.428V38.3405L140.137 38.3397Z" fill="#0B4171"/>
<path d="M126.172 43.3054L122.191 43.3035L122.196 38.3381L138.268 38.3429L138.267 43.3087L134.074 43.3079L134.073 53.2515L126.169 53.2497L126.172 43.3054Z" fill="#0B4171"/>
</g>
<defs>
<clipPath id="clip0_508_3981">
<rect width="177" height="92" fill="white"/>
</clipPath>
</defs>
</svg>
