<svg width="225" height="50" viewBox="0 0 225 50" fill="none" xmlns="http://www.w3.org/2000/svg">
<g clip-path="url(#clip0_508_3953)">
<path d="M151.728 21.0716L152.871 21.3293C157.6 22.3087 163.316 23.752 163.212 31.2262C163.212 38.3912 156.613 41.8963 150.429 41.8963C143.31 41.8963 139.621 39.2159 136.711 35.7623L141.959 30.6076C144.194 33.4427 147.104 34.8344 150.325 34.8344C153.027 34.8344 154.794 33.5458 154.794 31.587C154.794 29.5252 153.183 28.8551 148.87 27.9788L147.727 27.721C142.531 26.6386 138.27 23.752 138.27 17.8757C138.27 11.4324 143.57 7.56641 150.533 7.56641C156.457 7.56641 160.25 10.0922 162.589 12.721L157.444 17.7726C156.59 16.8321 155.549 16.0766 154.386 15.5533C153.224 15.03 151.965 14.7502 150.689 14.7314C148.818 14.7314 146.688 15.6076 146.688 17.7726C146.688 19.7829 148.922 20.5046 151.728 21.0716Z" fill="#ED0007"/>
<path fill-rule="evenodd" clip-rule="evenodd" d="M120.083 7.61719C110.522 7.61719 104.91 15.1945 104.91 24.7821C104.91 34.3698 110.522 41.9471 120.083 41.9471C129.645 41.9471 135.257 34.4213 135.257 24.7821C135.257 15.143 129.697 7.61719 120.083 7.61719ZM120.083 34.112C115.407 34.112 113.068 29.9368 113.068 24.7821C113.068 19.6275 115.407 15.5038 120.083 15.5038C124.76 15.5038 127.15 19.679 127.15 24.7821C127.15 29.9883 124.76 34.112 120.083 34.112Z" fill="#ED0007"/>
<path fill-rule="evenodd" clip-rule="evenodd" d="M96.2322 24.1631C97.5918 23.6412 98.7583 22.7198 99.5755 21.5223C100.393 20.3247 100.822 18.9081 100.805 17.462C100.805 11.4311 96.492 8.44141 90.5682 8.44141H75.0312V41.2352H91.9192C97.1155 41.2352 102.208 37.627 102.208 32.1115C102.208 26.1353 97.2434 24.5013 96.3644 24.212C96.279 24.1839 96.2322 24.1685 96.2322 24.1631ZM83.1375 15.2455H89.1652C89.5512 15.2218 89.9381 15.2738 90.3038 15.3986C90.6695 15.5233 91.0067 15.7184 91.2963 15.9727C91.5859 16.2269 91.8221 16.5353 91.9914 16.8802C92.1607 17.2251 92.2598 17.5997 92.283 17.9826V18.3383C92.2666 19.1445 91.9297 19.9116 91.3458 20.4726C90.7618 21.0335 89.978 21.3428 89.1652 21.3332H83.0855L83.1375 15.2455ZM89.2172 34.3692H83.1895V27.9259H89.0613C92.0232 27.9259 93.4262 29.2146 93.4262 31.1218C93.4262 33.5033 91.6594 34.3692 89.2172 34.3692Z" fill="#ED0007"/>
<path d="M181.712 34.1113C178.075 34.1113 174.282 31.1216 174.282 24.5752C174.282 18.7504 177.815 15.503 181.505 15.503C184.414 15.503 186.129 16.8432 187.48 19.1628L194.132 14.7814C190.806 9.78137 186.857 7.66797 181.401 7.66797C171.424 7.66797 166.02 15.3484 166.02 24.6267C166.02 34.369 171.995 41.9979 181.297 41.9979C187.844 41.9979 190.962 39.7298 194.339 34.8845L187.636 30.4102C186.285 32.5649 184.83 34.1113 181.712 34.1113Z" fill="#ED0007"/>
<path d="M216.32 20.5033V8.44141H224.998V41.2249H216.32V28.2868H206.291V41.2249H197.613V8.44141H206.291V20.5033H216.32Z" fill="#ED0007"/>
<path d="M25.0462 0.09375C20.0925 0.09375 15.2501 1.5509 11.1313 4.28095C7.01246 7.01099 3.80223 10.8913 1.90654 15.4312C0.0108521 19.9711 -0.485146 24.9667 0.481267 29.7862C1.44768 34.6057 3.8331 39.0327 7.33587 42.5074C10.8386 45.9821 15.3014 48.3484 20.1599 49.3071C25.0184 50.2657 30.0544 49.7737 34.631 47.8932C39.2076 46.0127 43.1192 42.8283 45.8713 38.7425C48.6235 34.6567 50.0924 29.8531 50.0924 24.9391C50.0924 18.3497 47.4536 12.0302 42.7565 7.37079C38.0595 2.71138 31.6889 0.09375 25.0462 0.09375ZM25.0462 47.4649C20.555 47.4649 16.1647 46.1438 12.4304 43.6686C8.69611 41.1934 5.78558 37.6754 4.06688 33.5594C2.34818 29.4433 1.89849 24.9141 2.77467 20.5446C3.65086 16.175 5.81357 12.1613 8.98932 9.01098C12.1651 5.8607 16.2112 3.71533 20.6161 2.84616C25.021 1.977 29.5868 2.42309 33.7361 4.12801C37.8854 5.83293 41.4319 8.72012 43.9271 12.4245C46.4223 16.1288 47.7541 20.4839 47.7541 24.9391C47.7527 30.9129 45.3598 36.6416 41.1016 40.8657C36.8433 45.0898 31.0683 47.4635 25.0462 47.4649Z" fill="black"/>
<path d="M35.3897 9.42188H33.675V17.927H16.4752V9.42188H14.7085C12.1208 11.1153 9.99703 13.4192 8.52763 16.1271C7.05823 18.8349 6.28906 21.8621 6.28906 24.9373C6.28906 28.0126 7.05823 31.0398 8.52763 33.7476C9.99703 36.4555 12.1208 38.7593 14.7085 40.4528H16.4752V31.958H33.675V40.4631H35.3897C37.9786 38.7705 40.1034 36.4669 41.5736 33.7589C43.0438 31.051 43.8134 28.0234 43.8134 24.9476C43.8134 21.8719 43.0438 18.8443 41.5736 16.1364C40.1034 13.4284 37.9786 11.1248 35.3897 9.43218V9.42188ZM14.0849 37.1126C12.4733 35.6922 11.1596 33.9707 10.2188 32.0466C9.27789 30.1225 8.72832 28.0334 8.60141 25.8985C8.4745 23.7637 8.77276 21.625 9.47913 19.6045C10.1855 17.5841 11.2862 15.7214 12.7183 14.1229C13.1475 13.6473 13.6038 13.1964 14.0849 12.7724V37.1126ZM33.675 29.5868H16.4752V20.2466H33.675V29.5868ZM36.0133 37.0611V12.7724C37.6209 14.2044 38.9283 15.9366 39.8609 17.87C40.7934 19.8034 41.3327 21.9001 41.448 24.0403C41.5634 26.1806 41.2524 28.3224 40.533 30.3434C39.8136 32.3644 38.6998 34.2249 37.2552 35.8188C36.8623 36.2498 36.4478 36.661 36.0133 37.0507V37.0611Z" fill="black"/>
</g>
<defs>
<clipPath id="clip0_508_3953">
<rect width="225" height="50" fill="white"/>
</clipPath>
</defs>
</svg>
