<svg width="64" height="64" viewBox="0 0 64 64" fill="none" xmlns="http://www.w3.org/2000/svg">
<path d="M29.9561 34.0439L13.4507 50.5493M33.2572 37.345L20.8781 57.9767M26.655 30.7428L6.02326 43.1219M34.0824 26.6165L37.3835 29.9176M34.9077 32.3934L61.3163 5.98476C62.2279 5.07319 62.2279 3.59524 61.3163 2.68368C60.4048 1.77211 58.9268 1.77211 58.0152 2.68368L31.6066 29.0923L34.9077 32.3934ZM34.9077 38.9955L36.5582 37.345C37.4698 36.4334 37.4698 34.9555 36.5582 34.0439L29.9561 27.4418C29.0445 26.5302 27.5666 26.5302 26.655 27.4418L25.0045 29.0923L34.9077 38.9955ZM2.68427 39.7829L24.2171 61.3157C25.3848 62.4834 27.3626 62.1025 28.0131 60.5847L35.9357 42.0986C36.3117 41.2213 36.1157 40.2035 35.4408 39.5286L24.4714 28.5592C23.7965 27.8843 22.7787 27.6883 21.9014 28.0643L3.41532 35.9869C1.89747 36.6374 1.51658 38.6152 2.68427 39.7829Z" stroke="#141414"/>
</svg>
