<svg viewBox="0 0 64 64" fill="none" xmlns="http://www.w3.org/2000/svg">
<path d="M25.4 50.3V49.8L24.9 50.3H25.4ZM24.5094 54.7774L24.0475 54.5861L24.5094 54.7774ZM18.1774 61.1094L18.3687 61.5713L18.1774 61.1094ZM9.2226 61.1094L9.41395 60.6474H9.41394L9.2226 61.1094ZM2.89061 54.7774L3.35255 54.5861L2.89061 54.7774ZM62 50.3H62.5V49.8H62V50.3ZM2 2V1.5L1.5 2H2ZM50.5 2H51L50.5 1.5V2ZM14 38H13.5L14 38.5V38ZM14 14V13.5L13.5 14H14ZM39 38V38.5L39.5 38H39ZM39 14H39.5L39 13.5V14ZM21 38H21.5L21 37.5V38ZM28 28V28.5H28.5V28H28ZM24.9 50.3C24.9 51.7708 24.6103 53.2272 24.0475 54.5861L24.9713 54.9687C25.5844 53.4886 25.9 51.9021 25.9 50.3H24.9ZM24.0475 54.5861C23.4846 55.9449 22.6596 57.1796 21.6196 58.2196L22.3267 58.9267C23.4596 57.7938 24.3582 56.4489 24.9713 54.9687L24.0475 54.5861ZM21.6196 58.2196C20.5796 59.2596 19.3449 60.0846 17.9861 60.6474L18.3687 61.5713C19.8489 60.9582 21.1938 60.0596 22.3267 58.9267L21.6196 58.2196ZM17.9861 60.6474C16.6272 61.2103 15.1708 61.5 13.7 61.5V62.5C15.3021 62.5 16.8886 62.1844 18.3687 61.5713L17.9861 60.6474ZM13.7 61.5C12.2292 61.5 10.7728 61.2103 9.41395 60.6474L9.03126 61.5713C10.5114 62.1844 12.0979 62.5 13.7 62.5V61.5ZM9.41394 60.6474C8.0551 60.0846 6.82042 59.2596 5.7804 58.2196L5.0733 58.9267C6.20617 60.0596 7.55109 60.9582 9.03126 61.5713L9.41394 60.6474ZM5.7804 58.2196C4.74039 57.1796 3.9154 55.9449 3.35255 54.5861L2.42867 54.9687C3.04178 56.4489 3.94042 57.7938 5.0733 58.9267L5.7804 58.2196ZM3.35255 54.5861C2.7897 53.2272 2.5 51.7708 2.5 50.3H1.5C1.5 51.9021 1.81556 53.4886 2.42867 54.9687L3.35255 54.5861ZM61.5 50.3C61.5 51.7708 61.2103 53.2272 60.6474 54.5861L61.5713 54.9687C62.1844 53.4886 62.5 51.9021 62.5 50.3H61.5ZM60.6474 54.5861C60.0846 55.9449 59.2596 57.1796 58.2196 58.2196L58.9267 58.9267C60.0596 57.7938 60.9582 56.4489 61.5713 54.9687L60.6474 54.5861ZM58.2196 58.2196C57.1796 59.2596 55.9449 60.0846 54.5861 60.6474L54.9687 61.5713C56.4489 60.9582 57.7938 60.0596 58.9267 58.9267L58.2196 58.2196ZM54.5861 60.6474C53.2272 61.2103 51.7708 61.5 50.3 61.5V62.5C51.9021 62.5 53.4886 62.1844 54.9687 61.5713L54.5861 60.6474ZM50.3 61.5H13.7V62.5H50.3V61.5ZM2.5 50.3V2H1.5V50.3H2.5ZM2 2.5H50.5V1.5H2V2.5ZM62 49.8H50.5V50.8H62V49.8ZM50.5 49.8H25.4V50.8H50.5V49.8ZM50 2V50.3H51V2H50ZM14.5 38V14H13.5V38H14.5ZM39.5 38V14H38.5V38H39.5ZM32 38.5H39V37.5H32V38.5ZM14 38.5H21V37.5H14V38.5ZM27 43.5C26.2777 43.5 25.5625 43.3577 24.8952 43.0813L24.5126 44.0052C25.3012 44.3319 26.1464 44.5 27 44.5V43.5ZM24.8952 43.0813C24.2279 42.8049 23.6216 42.3998 23.1109 41.8891L22.4038 42.5962C23.0074 43.1998 23.7239 43.6786 24.5126 44.0052L24.8952 43.0813ZM23.1109 41.8891C22.6002 41.3784 22.1951 40.7721 21.9187 40.1048L20.9948 40.4874C21.3214 41.2761 21.8002 41.9926 22.4038 42.5962L23.1109 41.8891ZM21.9187 40.1048C21.6423 39.4375 21.5 38.7223 21.5 38H20.5C20.5 38.8536 20.6681 39.6988 20.9948 40.4874L21.9187 40.1048ZM14 14.5H39V13.5H14V14.5ZM14 28.5H19V27.5H14V28.5ZM23 28.5H28V27.5H23V28.5ZM28.5 28V14H27.5V28H28.5Z" fill="#141414"/>
</svg>
