<svg width="64" height="64" viewBox="0 0 64 64" fill="none" xmlns="http://www.w3.org/2000/svg">
<path d="M10.7868 10.7868L10.4332 10.4332L10.7868 10.7868ZM53.2132 53.2132L53.5668 53.5668L53.2132 53.2132ZM36 17L36.4942 17.076L35.6053 16.693L36 17ZM22 35L21.6053 34.693L22 35.5V35ZM30 35L30.4942 35.076L30 34.5V35ZM34 30L33.5058 29.924L34 30.5V30ZM28 48L27.5058 47.924L28.3947 48.307L28 48ZM42 30L42.3947 30.307L42 29.5V30ZM2.5 32C2.5 24.1761 5.60803 16.6727 11.1404 11.1403L10.4332 10.4332C4.71338 16.1531 1.5 23.9109 1.5 32H2.5ZM11.1404 11.1403C16.6727 5.60803 24.1761 2.5 32 2.5V1.5C23.9109 1.5 16.1531 4.71338 10.4332 10.4332L11.1404 11.1403ZM61.5 32C61.5 39.8239 58.392 47.3273 52.8596 52.8596L53.5668 53.5668C59.2866 47.8469 62.5 40.0891 62.5 32H61.5ZM52.8596 52.8596C47.3273 58.392 39.8239 61.5 32 61.5V62.5C40.0891 62.5 47.8469 59.2866 53.5668 53.5668L52.8596 52.8596ZM35.6053 16.693L21.6053 34.693L22.3947 35.307L36.3947 17.307L35.6053 16.693ZM22 35.5H30V34.5H22V35.5ZM34.4942 30.076L36.4942 17.076L35.5058 16.924L33.5058 29.924L34.4942 30.076ZM28.3947 48.307L42.3947 30.307L41.6053 29.693L27.6053 47.693L28.3947 48.307ZM42 29.5H34V30.5H42V29.5ZM29.5058 34.924L27.5058 47.924L28.4942 48.076L30.4942 35.076L29.5058 34.924Z" fill="#141414"/>
</svg>
