<svg width="225" height="52" viewBox="0 0 225 52" fill="none" xmlns="http://www.w3.org/2000/svg">
<path d="M1.16406 16.088V7.35954C1.16406 7.35954 1.25704 0.632812 8.69485 0.632812C16.1327 0.632812 56.4828 0.632812 56.4828 0.632812V16.088H1.16406Z" fill="#ED1B23"/>
<path d="M1.16406 36.2422V44.9939C1.16406 44.9939 1.25704 51.7206 8.69485 51.7206C16.1327 51.7206 56.4828 51.7206 56.4828 51.7206V36.2422H1.16406Z" fill="#ED1B23"/>
<path d="M56.5079 18.4375H30.3594V34.1254H56.5079V18.4375Z" fill="black"/>
<path d="M27.3126 18.4375H1.16406V34.1254H27.3126V18.4375Z" fill="#ED1B23"/>
<path fill-rule="evenodd" clip-rule="evenodd" d="M138.993 9.3371C140.341 9.08106 142.154 8.94141 144.409 8.94141C146.663 8.94141 148.476 9.08106 149.825 9.3371C151.173 9.59313 152.312 10.1285 153.265 10.8966C154.217 11.6647 154.868 12.7354 155.217 14.1086C155.589 15.4586 155.775 17.2742 155.775 19.5086C155.775 21.7431 155.589 23.5586 155.217 24.9086C154.845 26.2586 154.194 27.3293 153.265 28.1207C152.312 28.8888 151.173 29.4242 149.825 29.6802C148.476 29.9362 146.663 30.0759 144.409 30.0759C142.154 30.0759 140.341 29.9362 138.993 29.6802C137.645 29.4242 136.506 28.8888 135.553 28.1207C134.6 27.3526 133.949 26.2819 133.601 24.9086C133.229 23.5586 133.043 21.7431 133.043 19.5086C133.043 17.2742 133.229 15.4586 133.601 14.1086C133.973 12.7586 134.624 11.688 135.553 10.8966C136.483 10.1285 137.645 9.59313 138.993 9.3371ZM140.853 15.319C140.202 16.1569 139.9 17.5535 139.9 19.5086C139.9 21.4871 140.225 22.8836 140.853 23.6983C141.503 24.5362 142.689 24.9319 144.409 24.9319C146.129 24.9319 147.314 24.513 147.965 23.6983C148.593 22.8604 148.918 21.4638 148.918 19.5086C148.918 17.5302 148.593 16.1336 147.965 15.319C147.314 14.4811 146.129 14.0854 144.409 14.0854C142.666 14.0621 141.48 14.4811 140.853 15.319Z" fill="black"/>
<path d="M85.1849 29.8405H76.1434C72.8196 29.8405 70.472 29.0259 69.1472 27.3966C67.7991 25.7672 67.125 23.1371 67.125 19.4828C67.125 15.8284 67.7991 13.1983 69.1472 11.569C70.4953 9.93966 72.8196 9.125 76.1434 9.125H84.8828V14.269H79.5833C77.7704 14.269 76.4455 14.4552 75.6088 14.8276C74.772 15.2 74.2839 15.8983 74.1909 16.9457H84.6039V21.6241H74.098C74.1677 22.8345 74.6093 23.6724 75.4461 24.0681C76.2828 24.4871 77.6542 24.6966 79.5833 24.6966H85.1849V29.8405Z" fill="black"/>
<path fill-rule="evenodd" clip-rule="evenodd" d="M104.476 19.3239C105.87 19.5799 106.823 20.0687 107.311 20.8136C107.799 21.5584 108.055 22.6291 108.055 24.0489C108.055 26.0739 107.66 27.5403 106.847 28.4713C106.033 29.3791 104.569 29.8446 102.454 29.8446H90.8087C89.786 29.8446 88.9958 29.5653 88.4147 28.9834C87.8336 28.4015 87.5547 27.6101 87.5547 26.586V12.411C87.5547 11.3868 87.8336 10.5954 88.4147 10.0136C88.9958 9.43165 89.786 9.15234 90.8087 9.15234H101.872C103.941 9.15234 105.405 9.59459 106.289 10.5023C107.172 11.4101 107.614 12.8765 107.614 14.948C107.614 17.392 106.591 18.8118 104.522 19.2075V19.3239H104.476ZM94.2022 15.367V17.1127H99.153C99.7806 17.1127 100.245 17.0196 100.524 16.8101C100.803 16.6006 100.943 16.2049 100.943 15.6463C100.943 15.0877 100.803 14.7153 100.501 14.5058C100.199 14.2963 99.7341 14.2032 99.1065 14.2032H95.3644C94.9228 14.2032 94.6206 14.2963 94.4579 14.4592C94.2952 14.6454 94.2022 14.948 94.2022 15.367ZM94.2022 21.6748V23.3506C94.2022 23.9325 94.2952 24.3282 94.5044 24.5377C94.6903 24.7239 95.0855 24.8403 95.6898 24.8403H99.4319C100.734 24.8403 101.384 24.3049 101.384 23.2342C101.384 22.1868 100.734 21.6748 99.4319 21.6748H94.2022Z" fill="black"/>
<path fill-rule="evenodd" clip-rule="evenodd" d="M110.406 29.8446H117.077V23.8627H125.375C127.606 23.8627 129.163 23.2808 130 22.0704C130.86 20.8601 131.279 18.998 131.279 16.4842C131.279 13.9472 130.837 12.1084 130 10.9213C129.163 9.73424 127.606 9.15234 125.375 9.15234H113.66C112.638 9.15234 111.847 9.43165 111.266 10.0136C110.685 10.5954 110.406 11.3868 110.406 12.411V29.8446ZM121.772 18.742H117.054V15.5998C117.054 14.7386 117.495 14.2963 118.355 14.2963H121.749C122.702 14.2963 123.376 14.4592 123.794 14.7618C124.213 15.0644 124.422 15.6463 124.422 16.4842C124.422 17.3454 124.213 17.9273 123.794 18.2532C123.376 18.5791 122.702 18.742 121.772 18.742Z" fill="black"/>
<path d="M163.724 29.8447H170.418V14.3197H177.786V9.17578H156.355V14.3197H163.724V29.8447Z" fill="black"/>
<path fill-rule="evenodd" clip-rule="evenodd" d="M184.317 9.3371C185.666 9.08106 187.479 8.94141 189.733 8.94141C191.988 8.94141 193.801 9.08106 195.149 9.3371C196.497 9.59313 197.636 10.1285 198.589 10.8966C199.542 11.6647 200.193 12.7354 200.541 14.1086C200.913 15.4586 201.076 17.2742 201.076 19.5086C201.076 21.7431 200.89 23.5586 200.541 24.9086C200.169 26.2586 199.518 27.3293 198.589 28.1207C197.636 28.8888 196.497 29.4242 195.149 29.6802C193.801 29.9362 191.988 30.0759 189.733 30.0759C187.479 30.0759 185.666 29.9362 184.317 29.6802C182.969 29.4242 181.83 28.8888 180.877 28.1207C179.924 27.3526 179.274 26.2819 178.925 24.9086C178.553 23.5586 178.367 21.7431 178.367 19.5086C178.367 17.2742 178.553 15.4586 178.925 14.1086C179.297 12.7586 179.948 11.688 180.877 10.8966C181.807 10.1285 182.969 9.59313 184.317 9.3371ZM186.177 15.319C185.526 16.1569 185.224 17.5535 185.224 19.5086C185.224 21.4871 185.549 22.8836 186.177 23.6983C186.828 24.5362 188.013 24.9319 189.733 24.9319C191.453 24.9319 192.638 24.513 193.289 23.6983C193.917 22.8604 194.242 21.4638 194.242 19.5086C194.242 17.5302 193.917 16.1336 193.289 15.319C192.638 14.4811 191.453 14.0854 189.733 14.0854C188.013 14.0854 186.804 14.4811 186.177 15.319Z" fill="black"/>
<path d="M224.271 29.868V9.17578H217.6V16.5077H210.116V9.17578H203.445V29.8447H210.116V21.6284H217.6V29.868H224.271Z" fill="black"/>
<path d="M74.0499 42.6222V44.8101H73.2131V43.3903H67.8672V37.1523H68.7504V42.6222H72.2369V37.1523H73.1201V42.6222H74.0499Z" fill="black"/>
<path d="M96.6184 42.6222V43.3903H92.0859V37.1523H96.4789V37.9204H92.9692V39.8291H96.107V40.5972H92.9692V42.6222H96.6184Z" fill="black"/>
<path d="M118.935 37.9204H115.727V43.3903H114.844V37.1523H118.935V37.9204Z" fill="black"/>
<path d="M141.177 37.1523V43.3903H140.294V37.9204H137.528L137.458 39.7592C137.435 40.6205 137.365 41.3187 137.249 41.8541C137.132 42.3894 136.97 42.7851 136.737 43.0644C136.505 43.3437 136.18 43.4601 135.784 43.4601C135.598 43.4601 135.413 43.4368 135.227 43.3903L135.296 42.5989C135.389 42.6222 135.482 42.6454 135.575 42.6454C135.831 42.6454 136.04 42.5523 136.18 42.3429C136.342 42.1334 136.458 41.8308 136.528 41.4118C136.598 40.9929 136.644 40.4575 136.691 39.7825L136.784 37.1523H141.177Z" fill="black"/>
<path d="M163.998 41.8308H160.674L159.977 43.3903H159.07L161.906 37.1523H162.789L165.625 43.3903H164.695L163.998 41.8308ZM163.696 41.1092L162.348 38.0368L160.999 41.1092H163.696Z" fill="black"/>
<path d="M198.4 37.1519H199.284V43.3898H198.563L194.821 38.7346V43.3898H193.938V37.1519H194.658L198.4 41.807V37.1519ZM200.887 39.782C200.655 39.6657 200.469 39.4794 200.33 39.27C200.19 39.0605 200.12 38.8044 200.12 38.5251C200.12 38.2458 200.19 38.0131 200.33 37.7803C200.469 37.5708 200.655 37.3846 200.887 37.2682C201.12 37.1519 201.399 37.082 201.701 37.082C202.003 37.082 202.282 37.1519 202.514 37.2682C202.747 37.3846 202.933 37.5708 203.072 37.7803C203.212 37.9898 203.281 38.2458 203.281 38.5251C203.281 38.8044 203.212 39.0372 203.072 39.27C202.933 39.4794 202.747 39.6657 202.514 39.782C202.282 39.8984 202.003 39.9682 201.701 39.9682C201.399 39.9682 201.12 39.9217 200.887 39.782ZM200.283 40.6665H203.095V41.2484H200.283V40.6665ZM200.98 37.8501C200.794 38.0131 200.701 38.2458 200.701 38.5251C200.701 38.8044 200.794 39.0139 200.98 39.2001C201.166 39.3631 201.399 39.4562 201.701 39.4562C202.003 39.4562 202.235 39.3631 202.398 39.2001C202.584 39.0372 202.677 38.8044 202.677 38.5251C202.677 38.2458 202.584 38.0363 202.398 37.8501C202.212 37.6872 201.98 37.5941 201.701 37.5941C201.399 37.5941 201.166 37.6872 200.98 37.8501Z" fill="black"/>
<path d="M223.528 37.1523V43.3903H222.644V37.9204H221.227V37.1523H223.528Z" fill="black"/>
</svg>
