<svg width="225" height="58" viewBox="0 0 225 58" fill="none" xmlns="http://www.w3.org/2000/svg">
<path fill-rule="evenodd" clip-rule="evenodd" d="M37.5639 50.9307C43.3928 50.169 48.2513 47.0948 52.0391 42.6418C55.4568 38.6229 57.9134 33.5981 59.349 28.4673L56.9164 29.4651C56.8228 29.5102 56.7265 29.55 56.6275 29.5844H56.625C56.4445 29.6601 56.256 29.7013 56.0635 29.7132C55.958 29.7251 55.8524 29.7317 55.7428 29.7317C54.2498 29.7317 53.0376 28.5309 53.0376 27.0476C53.0376 25.8693 53.8047 24.8676 54.8688 24.5081L61.9953 21.5943C62.0702 21.5583 62.1477 21.5279 62.2238 21.5L62.2293 21.4972C62.2439 21.4921 62.2573 21.4881 62.2707 21.4842L62.2773 21.4814C62.5473 21.3913 62.8373 21.3422 63.1394 21.3422C64.631 21.3422 65.8408 22.5441 65.8408 24.0263C65.8408 31.117 60.6427 41.0432 56.1464 46.3305C51.4325 51.874 45.3296 55.6012 38.0705 56.5008C38.0492 56.5047 38.0292 56.5087 38.0092 56.5113L37.9557 56.5207L37.9008 56.5246C31.1564 57.009 24.9306 55.2895 19.6311 50.977C14.4531 46.7645 10.8792 40.6888 8.32619 34.5428C7.94002 34.6106 7.54704 34.6489 7.15806 34.6529C5.30291 34.6768 3.50385 34.0081 2.14984 32.7171C0.771996 31.4061 0.020683 29.6084 0.000653304 27.699C-0.0514238 23.7397 3.01612 20.3391 6.9844 20.2899C8.0001 20.2766 8.97718 20.4199 9.91276 20.8433C10.9338 21.3115 11.7266 22.0361 12.3748 22.9582L12.3894 22.9808L12.4054 23.0047C13.2838 24.3221 13.3198 25.8548 11.9631 26.9321C10.6038 27.9804 9.02125 27.147 8.26469 26.4385C7.74493 25.9502 7.37598 25.8906 7.0511 25.8918C6.24251 25.8918 5.53825 26.6283 5.55147 27.5411C5.65704 28.4196 6.24791 29.0273 7.09537 29.0273C8.13791 29.0244 8.77409 28.239 9.83006 28.2364C10.9207 28.2325 11.9818 28.8666 12.3974 29.9864C14.6403 36.0223 17.9497 42.48 23.0073 46.5933C27.2268 50.0231 32.1535 51.3181 37.5278 50.9333L37.5639 50.9307Z" fill="#FAB834"/>
<path fill-rule="evenodd" clip-rule="evenodd" d="M25.0422 21.6807C20.2078 21.6807 16.2891 17.7878 16.2891 12.9912C16.2891 9.22169 18.4597 6.29201 21.932 4.86694L33.7956 0V12.9898C33.7956 17.7878 29.8753 21.6807 25.0422 21.6807ZM30.9768 4.18354L23.0093 7.45301C20.5902 8.44401 19.1078 10.3574 19.1078 12.9912C19.1078 16.2432 21.765 18.881 25.0422 18.881C28.3197 18.881 30.9768 16.2432 30.9768 12.9912V4.18354Z" fill="#004271"/>
<path fill-rule="evenodd" clip-rule="evenodd" d="M44.4565 21.7183C39.6221 21.7183 35.7031 17.8254 35.7031 13.0275C35.7031 9.26057 37.8711 6.32967 41.3449 4.90461L53.2085 0.0390625V13.0275C53.2085 17.8254 49.2883 21.7183 44.4565 21.7183ZM50.3895 4.2212L42.4209 7.49068C40.0043 8.48166 38.5207 10.3951 38.5207 13.0275C38.5207 16.2809 41.1778 18.9187 44.4565 18.9187C47.7337 18.9187 50.3895 16.2809 50.3895 13.0275V4.2212Z" fill="#004271"/>
<path d="M132.002 24.0195H125.724L125.723 47.4583C125.723 50.376 128.122 52.7563 131.062 52.7563C131.139 52.7563 131.206 52.7617 131.265 52.771L144.694 52.7577C143.451 51.3366 142.698 49.4817 142.698 47.4555V46.6343L133.544 46.6369C132.696 46.6369 132.002 45.9483 132.002 45.1071V24.0195Z" fill="#004271"/>
<path d="M151.705 35.6573H159.094V40.9964H151.705V45.0965C151.705 45.9389 152.398 46.6263 153.245 46.6263H163.234V52.7417L150.969 52.7563C150.909 52.7483 150.842 52.7417 150.764 52.7417C147.827 52.7417 145.43 50.364 145.43 47.4463V28.978C145.43 26.254 147.668 24.0328 150.409 24.0328C150.481 24.0328 150.543 24.0289 150.6 24.0195L151.704 24.0209L162.047 24.0328V29.7408H153.129C152.405 29.7408 151.804 30.2783 151.705 30.9709V35.6573Z" fill="#004271"/>
<path d="M170.085 38.389C170.085 33.5514 174.096 29.604 179.007 29.604C181.298 29.6054 183.389 30.4598 184.971 31.8636L187.57 26.0031C185.127 24.3603 182.179 23.3945 179.007 23.3945C170.623 23.3945 163.781 30.1321 163.781 38.389C163.781 46.6514 170.623 53.3878 179.007 53.3878C182.613 53.3878 185.935 52.1378 188.548 50.0614C187.185 48.4398 186.1 46.5758 185.367 44.543C183.747 46.1658 181.492 47.1767 179.007 47.1767C174.094 47.1767 170.087 43.2321 170.085 38.389Z" fill="#004271"/>
<path d="M112.353 25.5331L124.463 52.7439L117.784 52.7533L109.878 34.5609L101.86 52.7533H95.1641L107.318 25.614C107.33 25.5995 107.34 25.5822 107.351 25.5637C107.818 24.66 108.768 24.0391 109.858 24.0391C110.926 24.0391 111.857 24.6322 112.334 25.5053C112.336 25.5086 112.339 25.5123 112.341 25.5161C112.345 25.5217 112.349 25.5276 112.353 25.5331Z" fill="#004271"/>
<path d="M86.8217 42.4369H90.2307C89.4003 44.9313 86.2724 47.1551 82.8564 47.1551C77.9285 47.1551 73.9093 43.197 73.9093 38.3409C73.9093 33.4886 77.9285 29.5519 82.8564 29.5294C85.1457 29.5187 87.2751 30.3015 88.9087 31.6495L91.2666 26.3156C88.8094 24.4938 85.7783 23.4125 82.5049 23.4125C82.1668 23.4125 81.8539 23.3912 81.5599 23.3555C73.7529 24.0082 67.5859 30.49 67.5859 38.3409C67.5859 46.627 74.4479 53.3845 82.8564 53.3845C89.2424 53.3845 94.3266 49.0816 96.405 43.3868C97.2634 41.0289 95.7895 37.6296 92.0214 37.6296H86.8217V42.4369Z" fill="#004271"/>
<path fill-rule="evenodd" clip-rule="evenodd" d="M201.931 23.3945C210.131 23.3945 216.819 30.1321 216.819 38.3876C216.819 46.6499 210.131 53.3837 201.931 53.3837C193.73 53.3837 187.043 46.6499 187.043 38.3876C187.043 30.1321 193.73 23.3945 201.931 23.3945ZM201.648 47.1501C205.969 47.1501 209.474 43.6725 209.474 39.3828V27.7717L198.91 32.1038C195.693 33.4241 193.825 36.0499 193.825 39.3828C193.825 43.6725 197.328 47.1501 201.648 47.1501Z" fill="#004271"/>
<path fill-rule="evenodd" clip-rule="evenodd" d="M221.694 24.6754C222.351 24.5428 222.727 24.101 222.727 23.4602C222.727 22.6401 222.104 22.2208 220.836 22.2208H219.12V26.732H219.977V24.8068H220.824L221.75 26.732H222.707L221.694 24.6754ZM220.702 24.2668C221.481 24.2668 221.85 24.0783 221.85 23.5476C221.85 22.9942 221.481 22.7728 220.68 22.7728H219.977V24.2668H220.702Z" fill="#004271"/>
<path fill-rule="evenodd" clip-rule="evenodd" d="M223.586 21.7563C224.321 22.4968 224.744 23.492 224.744 24.5547C224.744 25.648 224.332 26.6206 223.574 27.3504C222.783 28.1133 221.77 28.5338 220.724 28.5338C219.655 28.5338 218.663 28.1133 217.896 27.3396C217.139 26.5767 216.727 25.6042 216.727 24.5547C216.727 23.5039 217.159 22.4862 217.94 21.7006C218.675 20.9603 219.645 20.5742 220.724 20.5742C221.816 20.5742 222.819 20.9814 223.586 21.7563ZM223.196 26.9855C223.854 26.3566 224.211 25.5048 224.211 24.5865C224.211 23.6259 223.865 22.7608 223.218 22.1226C222.549 21.4473 221.694 21.0916 220.734 21.0916C219.798 21.0916 218.942 21.4352 218.307 22.0788C217.627 22.7608 217.249 23.6459 217.249 24.5547C217.249 25.4596 217.616 26.3115 218.274 26.9736C218.93 27.6395 219.809 28.0031 220.702 28.0031C221.649 28.0031 222.504 27.6516 223.196 26.9855Z" fill="#004271"/>
</svg>
