<svg width="93" height="40" viewBox="0 0 93 40" fill="none" xmlns="http://www.w3.org/2000/svg">
<path fill-rule="evenodd" clip-rule="evenodd" d="M23.0224 12.5689C25.2898 10.2573 28.378 10.0073 30.018 10H30.1718C31.8104 10.0073 34.9011 10.2573 37.1675 12.5689C39.4145 14.8618 39.6841 18.0941 39.6841 19.9993C39.6841 21.9059 39.4145 25.1377 37.1675 27.4292C34.865 29.7773 31.712 30 30.0949 30C28.4763 30 25.3257 29.7773 23.0224 27.4292C20.7766 25.1377 20.4994 21.9059 20.4994 19.9993C20.4994 18.0941 20.7766 14.8618 23.0224 12.5689ZM30.0947 26.1868C31.6288 26.1868 32.6425 25.4689 33.2462 24.6133C34.2864 23.2039 34.4253 21.2425 34.4253 19.9993C34.4253 18.7555 34.2864 16.7947 33.2462 15.3869C32.6425 14.5311 31.6288 13.8121 30.0947 13.8121C28.5581 13.8121 27.5436 14.5311 26.941 15.3869C25.8996 16.7947 25.7623 18.7555 25.7623 19.9993C25.7623 21.2425 25.8996 23.2039 26.941 24.6133C27.5436 25.4689 28.5581 26.1868 30.0947 26.1868Z" fill="#45B759"/>
<path d="M70.9283 21.4556C70.9283 22.1187 70.8732 23.5826 70.3777 24.5773C69.7499 25.849 68.5983 26.18 67.6372 26.18C66.6781 26.18 65.5259 25.849 64.8987 24.5773C64.4032 23.5826 64.3472 22.1187 64.3472 21.4556V10.3223H59.2487V22.3129C59.2487 23.7754 59.442 25.849 60.9767 27.5621C62.9502 29.7712 65.9378 29.9935 67.6372 29.9935C69.338 29.9935 72.3264 29.7712 74.2995 27.5621C75.8369 25.849 76.0268 23.7754 76.0268 22.3129V10.3223H70.9283V21.4556Z" fill="#45B759"/>
<path d="M48.7183 25.5219H48.6609L44.4624 10.3281H39.0942L45.4376 29.6658H51.6699L58.1241 10.3281H52.9456L48.7183 25.5219Z" fill="#45B759"/>
<path d="M90.2744 19.5583C89.2609 18.729 87.4243 18.1206 86.4651 17.8729L86.1645 17.7882C84.5742 17.3477 83.6421 16.9891 83.2308 16.4637C83.0652 16.2715 82.9543 15.9247 82.9543 15.5641C82.9543 15.0898 83.1827 14.5181 83.9439 14.1702C84.7336 13.809 85.6286 13.7836 86.2839 13.8118C87.4042 13.8629 89.4596 14.4044 90.4556 15.5119C90.4556 15.5119 91.1535 14.0779 90.8237 12.8688C90.4455 11.4791 89.4012 10.715 88.3459 10.3682C87.522 10.0979 86.3181 10.0042 85.6361 10H85.505C83.7557 10.0085 82.2191 10.2872 80.7651 11.0215C78.5962 12.1264 77.6953 13.8694 77.6953 15.9936C77.6953 16.7402 77.8567 17.6522 78.16 18.3429C78.8721 19.8915 80.4915 20.8563 81.9959 21.3258L82.7918 21.5749C83.0371 21.6522 83.2724 21.7237 83.4975 21.792C84.5549 22.1131 85.3893 22.3665 85.9984 22.845C86.4651 23.2037 86.7397 23.6173 86.7397 24.2818C86.7397 24.9455 86.4091 25.345 86.0685 25.6077C85.4958 26.0516 84.3793 26.187 83.5856 26.187C82.2723 26.187 80.0748 25.6746 78.3239 23.7457C78.3239 23.7457 77.7679 25.391 78.0616 26.6752C78.3562 27.9587 79.471 28.7771 80.4508 29.2359C81.5178 29.741 82.9727 30 84.0438 30C85.9341 30 88.1105 29.6961 89.8094 28.4249C90.903 27.5973 92 26.1328 92 23.6173C92 22.2383 91.6728 20.6912 90.2744 19.5583Z" fill="#45B759"/>
<path d="M14.0005 23.4068H14.0562L13.9734 10.25H18.6456V29.6385H16.4204C13.7009 29.6385 11.6773 28.3761 10.2031 25.5132C9.19007 23.5439 5.59084 16.3979 5.59084 16.3979H5.53515L5.69853 29.6385H1V10.25H2.96172C5.45741 10.25 8.23832 11.7179 9.59594 14.4769C10.9576 17.2343 14.0005 23.4068 14.0005 23.4068Z" fill="#45B759"/>
</svg>
