<svg width="225" height="72" viewBox="0 0 225 72" fill="none" xmlns="http://www.w3.org/2000/svg">
<path d="M16.1341 3.23828C11.6904 5.55695 7.16735 7.95558 3.43783 11.8733C-0.0536414 15.4713 -1.00586 21.6277 1.13663 26.2651C3.40599 30.7939 6.3496 34.9462 9.8653 38.578C7.51508 26.4226 9.75044 13.8209 16.1341 3.23828Z" fill="#37A58C"/>
<path d="M12.4844 40.8971C16.8487 43.6955 21.1337 46.3339 26.1328 47.5333C31.6081 48.8125 36.7659 46.4938 40.0194 42.0964C42.5794 37.9014 44.5804 33.3852 45.9707 28.6641C36.6776 36.7457 24.7584 41.0999 12.4844 40.8971Z" fill="#DD0661"/>
<path d="M45.101 6.9958C44.0437 5.05252 42.5278 3.40141 40.6872 2.18825C38.8466 0.975104 36.7379 0.237232 34.5472 0.0397863C29.6073 -0.153464 24.665 0.357974 19.8672 1.55892C30.7383 5.0769 41.5302 14.1917 47.0848 24.6657C47.3228 18.5892 47.6402 12.1129 45.101 6.9958Z" fill="#4F4F4F"/>
<path d="M140.08 24.668V44.1768H134.526V24.668H121.75V71.9209H134.526V52.3321H140.001V71.9209H152.776V24.668H140.08Z" fill="#010101"/>
<path d="M165.16 24.668C161.113 24.668 158.336 28.186 158.336 32.4235V71.9209H171.032V52.3321H176.19V71.9209H188.807V24.668H165.16ZM176.19 44.1768H171.032V34.5823C171.032 32.8233 171.667 32.1837 173.254 32.1837H176.19V44.1768Z" fill="#010101"/>
<path d="M82.8661 48.0146C85.8021 47.6948 89.2142 44.5766 89.2142 40.4189V32.4235C89.1348 28.106 85.9608 24.668 82.628 24.668H58.4258V71.9209H71.0427V52.3321H74.2167C75.7244 52.3321 76.4386 53.0517 76.4386 54.8107V72.0009H89.2142V55.7702C89.2142 51.5326 85.8814 48.3344 82.8661 48.0146ZM76.4386 41.7782C76.5179 43.2173 75.8831 44.0169 74.8515 44.1768H71.122V32.1837H74.2961C75.8831 32.1837 76.5179 32.9832 76.5179 34.5823L76.4386 41.7782Z" fill="#010101"/>
<path d="M107.553 33.7827H116.282V24.668H94.7773V71.9209H116.282V62.8061H107.553V52.3321H114.933V44.1768H107.553V33.7827Z" fill="#010101"/>
<path d="M224.11 67.2018C224.777 65.388 225.074 63.4572 224.983 61.525V24.7461H212.525V61.2052C212.534 61.568 212.467 61.9287 212.329 62.2637C212.19 62.5987 211.983 62.9005 211.721 63.1495C211.459 63.3985 211.148 63.589 210.808 63.7086C210.468 63.8282 210.107 63.8742 209.748 63.8437H209.668C209.311 63.868 208.952 63.8176 208.615 63.6957C208.277 63.5738 207.969 63.383 207.708 63.1353C207.447 62.8876 207.24 62.5883 207.1 62.2562C206.959 61.9241 206.888 61.5663 206.891 61.2052V24.7461H194.433V61.525C194.322 63.4582 194.619 65.3931 195.306 67.2018C195.817 68.2916 196.557 69.2565 197.475 70.0296C198.393 70.8027 199.467 71.3656 200.622 71.6792C201.746 71.8963 202.892 71.9768 204.034 71.9191H215.461C216.603 71.9334 217.744 71.8532 218.873 71.6792C220.005 71.3361 221.054 70.7614 221.955 69.991C222.856 69.2205 223.59 68.271 224.11 67.2018Z" fill="#010101"/>
</svg>
