<svg width="64" height="64" viewBox="0 0 64 64" fill="none" xmlns="http://www.w3.org/2000/svg">
<path d="M31.0234 35.8852L41.6427 46.5045C42.39 47.2519 42.0972 48.5258 41.0975 48.8763L3.91045 61.9162C2.77474 62.3144 1.68557 61.2252 2.08381 60.0895L15.1237 22.9024C15.4742 21.9027 16.7481 21.6099 17.4954 22.3573L28.1147 32.9766M41.6884 25.2203L27.63 39.2787C26.8268 40.0819 25.5246 40.0819 24.7214 39.2787C23.9182 38.4755 23.9182 37.1732 24.7214 36.3701L38.7797 22.3117L41.6884 25.2203ZM36.8407 20.3726L53.8076 3.40559C55.6817 1.53147 58.7203 1.53147 60.5944 3.40559C62.4685 5.27971 62.4685 8.31826 60.5944 10.1924L43.6274 27.1594L36.8407 20.3726Z" stroke="#141414" stroke-linejoin="bevel"/>
</svg>
