<svg width="101" height="40" viewBox="0 0 101 40" fill="none" xmlns="http://www.w3.org/2000/svg">
<path d="M41.6967 1.00386C37.1709 1.10691 34.0007 4.19174 32.5146 6.01878C32.5146 6.01878 32.4494 6.09656 32.3972 6.16134C32.3353 6.14308 32.2743 6.12146 32.2147 6.09656C29.1104 4.98208 25.6021 4.77474 22.0673 5.48755C18.6641 6.18612 13.785 7.93661 10.2363 10.7746C4.01585 15.7635 0.741991 21.7764 1.01589 27.7112C1.17245 31.1464 2.76368 34.1127 5.60709 36.2896C10.2764 39.8792 17.9847 39.0496 21.0895 38.5314C24.5589 37.9484 78.8567 28.2812 85.9915 26.9206C92.4738 25.6896 98.643 23.4996 99.8826 15.8931C99.9605 15.4437 99.9997 14.9885 100 14.5325V14.4797C100 12.6149 99.412 10.8772 98.3958 9.69814C96.4914 7.50819 93.2957 7.24908 91.0655 7.23607C87.9612 7.22307 54.6496 7.85809 50.8674 7.93588H50.6197C50.6064 7.81932 50.5934 7.70253 50.5934 7.70253C50.4086 6.23114 49.7859 4.84952 48.8065 3.73731C47.6574 2.44223 45.4924 0.91307 41.6967 1.00386Z" fill="#FE8422"/>
<path d="M41.6571 12.0422C43.5479 11.9644 45.4001 11.1223 45.5437 9.16547C45.648 7.85665 44.6308 6.50906 42.5569 6.39276C41.5098 6.29968 40.463 6.57452 39.5962 7.1701C39.0175 7.60298 38.6108 8.22743 38.4486 8.93236C38.2399 9.77473 38.3442 10.4743 38.7485 11.018C39.2965 11.7308 40.3397 12.0937 41.6571 12.0422Z" fill="white"/>
<path d="M95.8427 15.2339C95.5688 15.8299 95.008 16.4519 94.5121 16.5297L94.2916 16.5815C94.2916 16.5815 94.4876 15.2599 94.5004 14.871C94.5396 13.0569 94.1084 11.1658 91.2664 11.3204C89.5189 11.424 86.9756 12.9271 86.5841 16.1788V16.1918L86.5711 16.2048C86.572 16.2271 86.5675 16.2493 86.5581 16.2696C86.1274 17.3968 85.3319 18.9908 84.7582 19.0556C84.7016 19.0625 84.6442 19.0568 84.59 19.0389C84.5359 19.021 84.4864 18.9913 84.4451 18.952C84.3901 18.8907 84.3479 18.819 84.3209 18.7411C84.294 18.6633 84.2829 18.5808 84.2883 18.4986C84.3462 17.9666 84.4554 17.4415 84.6141 16.9306C84.8594 16.0388 85.034 15.1289 85.1362 14.2094C85.3449 11.9937 83.9752 11.553 82.5535 11.6576C81.7063 11.7398 80.9071 12.0891 80.2708 12.6553L79.7615 13.2255C79.7615 13.2255 79.9965 12.137 80.0616 11.8389C79.6571 11.8519 77.1401 11.9424 76.8791 11.9424L75.7576 16.4389C75.3656 16.9571 74.8315 17.3848 74.3751 17.5014L74.1546 17.5531L74.1284 17.3198C74.1126 17.0883 74.0776 16.8585 74.024 16.6327C73.9588 16.1275 73.5151 14.404 71.819 14.5471C67.4496 14.91 67.5806 20.2873 70.1886 19.523L70.4887 19.4322L70.4363 19.7561C70.0842 21.8943 69.1714 23.0215 67.906 23.1898C67.814 23.202 67.7205 23.1931 67.6325 23.1639C67.5445 23.1347 67.4642 23.086 67.3976 23.0213C67.2748 22.8776 67.1824 22.7103 67.1262 22.5297C67.0701 22.3491 67.0512 22.159 67.0708 21.9708C67.097 20.9211 69.1966 12.1876 69.1966 12.1876C69.1966 12.1876 65.4141 12.3301 65.1402 12.3431C64.9442 13.1465 64.1113 16.6192 64.1113 16.6192L63.9807 17.0727C63.8437 17.5287 63.7305 17.9915 63.6414 18.4593V18.4865L63.6284 18.4995C63.6152 18.5255 63.6152 18.5513 63.6022 18.5643C62.9632 20.21 61.8546 21.9981 60.9937 22.0888C60.9157 22.1024 60.8357 22.0965 60.7605 22.0716C60.6854 22.0467 60.6176 22.0037 60.563 21.9463C60.5012 21.8806 60.4532 21.8032 60.4218 21.7186C60.3905 21.634 60.3764 21.544 60.3805 21.4538V21.4408L60.4586 20.7292C60.4586 20.7292 62.6107 12.9156 62.7675 12.3974C62.2848 12.4104 58.1503 12.4882 58.1503 12.4882L57.7458 13.9135C57.6414 12.7473 55.1763 11.1923 53.3242 12.8511C51.3679 14.6003 50.8328 17.2307 50.5332 19.8223L50.507 19.9259C50.0905 23.0487 49.3592 25.1867 47.1809 25.4588C46.7535 25.5481 46.3087 25.4934 45.9155 25.3032C46.5446 24.8693 47.0812 24.3142 47.494 23.6705C48.3025 22.3359 47.9375 21.1697 47.0895 20.6124C45.3939 19.511 43.542 20.8578 43.2162 22.569C43.062 23.4188 43.2395 24.2955 43.7118 25.0181C43.1238 25.355 42.6551 25.7179 41.8467 25.8215C41.6444 25.8476 41.4389 25.8261 41.2464 25.7586C41.0539 25.6911 40.8799 25.5795 40.7381 25.4328C40.2554 24.785 40.9076 22.6986 40.999 22.4265C40.999 22.4265 43.9987 13.5764 44.1682 13.0321C43.6466 13.0582 38.1294 13.2395 37.8555 13.253C37.6729 13.8102 36.9686 15.9742 36.2512 17.9695C34.8425 21.871 30.7469 27.2085 26.521 28.297C24.2776 28.88 22.5169 28.7765 21.4083 28.0897C19.8952 27.1573 19.0213 24.9408 19.6083 21.831C19.8428 20.3436 20.3039 18.9012 20.9756 17.5541C24.5104 10.0904 30.1969 11.7749 29.8444 12.3451C29.4696 12.4766 29.1073 12.6414 28.7618 12.8376C27.8487 13.317 26.388 14.7294 26.3363 16.4787C26.2971 17.6059 26.6102 18.513 27.2232 19.109C27.8232 19.692 28.7101 19.9642 29.7143 19.8736C31.9577 19.6663 33.7837 17.9948 33.8621 15.506C33.9013 14.1584 33.523 13.0569 32.7402 12.2406C31.4751 10.9318 30.0012 10.284 26.7134 10.3757C21.6136 10.5183 13.8921 14.1336 11.6746 22.1291C10.9313 24.8243 11.9093 28.0897 13.5398 29.5668C15.7962 31.6279 18.6004 32.3785 23.5177 31.4586C27.9001 30.6423 31.4868 27.675 34.1347 24.5651C34.1369 24.613 34.1325 24.661 34.1217 24.7077C33.4958 26.9882 34.3435 29.4243 38.1911 28.932C39.7953 28.7247 42.6125 27.8176 44.5823 26.2886C45.4821 27.0662 47.0474 27.5327 48.8207 27.2736C49.5515 27.17 51.4164 26.6776 53.0591 24.332C54.3502 22.4917 55.0024 18.8897 55.3674 16.9463C55.5369 16.0385 55.6413 15.4432 55.7839 15.1971C55.8858 14.9125 56.0906 14.6767 56.3579 14.5363C57.0493 14.2512 57.4014 14.9119 57.2708 15.4174C57.1407 15.9099 56.4231 18.3847 56.4231 18.3977L56.2925 18.7864C55.876 19.9914 55.3924 21.365 55.3534 22.8161C55.3272 23.8786 55.6011 24.721 56.1619 25.2392C56.6835 25.7186 57.4273 25.913 58.301 25.7834C60.7178 25.4306 62.4392 22.9957 63.2489 21.5831L63.3662 21.3758L63.523 21.0907L63.6142 21.6219C63.9924 23.7341 65.6751 24.5892 68.2054 24.2135C71.479 23.7341 73.4482 22.0496 74.0487 19.1211L74.0745 18.9915L74.192 18.9527C74.5094 18.8336 74.8115 18.6771 75.0919 18.4865L75.3396 18.318L74.1781 23.0215C74.6477 22.9567 77.7129 22.4385 77.9605 22.4125C78.0257 22.1274 79.3693 16.4254 79.3693 16.4254C79.6042 15.4405 80.2432 13.5617 80.9735 13.5099C81.046 13.5072 81.1183 13.5196 81.1858 13.5464C81.2533 13.5732 81.3145 13.6137 81.3655 13.6655C81.5388 13.8756 81.6231 14.1454 81.6004 14.417C81.5416 15.1412 81.3926 15.8551 81.157 16.5422C80.8354 17.6299 80.6128 18.7445 80.4918 19.8724C80.3091 21.855 81.9917 21.842 82.4873 21.7642C83.6741 21.5959 85.2526 20.9739 86.5961 18.0454L86.6613 18.3565C86.8028 19.107 87.2305 19.7728 87.8537 20.213C88.4769 20.6532 89.2467 20.8332 90.0001 20.7148C91.8914 20.4296 93.1825 19.4059 93.9001 17.7212L93.9521 17.6047L94.0694 17.5917C94.813 17.5139 95.8302 16.6592 96.0914 15.6608C95.999 15.6098 95.9863 15.4155 95.8427 15.2339ZM45.7445 21.4926C46.4227 21.5186 46.6966 21.9343 46.3183 22.7624C46.1358 23.1641 45.6007 23.7731 44.9096 24.2913C44.0617 22.9567 44.8964 21.4536 45.7445 21.4926ZM70.8653 17.929C70.7347 18.1104 70.4733 18.2272 70.0436 18.305C69.6001 18.3827 69.4828 18.1364 69.4695 18.0328C69.3784 17.6442 69.8089 17.0091 70.1741 16.8408C70.2575 16.797 70.351 16.7764 70.445 16.781C70.539 16.7855 70.63 16.8152 70.7087 16.8668C71.0086 17.2165 70.8653 17.929 70.8653 17.929ZM91.6819 17.7347C91.408 18.5511 91.0425 19.4322 90.3122 19.523C90.2049 19.5431 90.0946 19.5396 89.9888 19.5128C89.8831 19.4859 89.7844 19.4363 89.6997 19.3674C89.452 19.1466 89.3476 18.9397 89.3609 18.2012C89.4001 16.4649 90.3129 12.124 91.5521 12.072C91.6377 12.0691 91.7229 12.0851 91.8018 12.1186C91.8806 12.1522 91.9512 12.2026 92.0085 12.2663C92.2692 12.5515 92.3736 13.0957 92.3086 13.7435L92.2954 13.8213C92.2954 13.8213 91.0043 13.873 90.8607 15.7909C90.8424 16.1275 90.915 16.4629 91.0711 16.7617C91.2271 17.0604 91.4608 17.3115 91.7474 17.4884L91.6819 17.7347ZM92.034 16.4649C91.6175 16.2058 91.6295 15.4412 91.8645 15.1691C91.9078 15.109 91.9697 15.065 92.0406 15.044C92.1115 15.0229 92.1874 15.0259 92.2565 15.0525C92.234 15.53 92.1592 16.0036 92.034 16.4649Z" fill="white"/>
</svg>
