<svg width="64" height="64" viewBox="0 0 64 64" fill="none" xmlns="http://www.w3.org/2000/svg">
<path d="M54 32C54 44.1503 44.1503 54 32 54M54 32C54 19.8497 44.1503 10 32 10M54 32C48.518 28.3451 39.697 28.0296 33.6384 31.0534M32 54C19.8497 54 10 44.1503 10 32M32 54C35.6514 48.5233 35.97 39.7138 32.9556 33.6557M10 32C10 19.8497 19.8497 10 32 10M10 32C15.5067 35.6713 24.3828 35.9732 30.4436 32.9056M32 10C28.3445 15.4828 28.0297 24.3058 31.055 30.3645M47.5562 47.5566C46.2599 41.074 40.2096 34.5915 33.7632 32.4676M16.4438 16.4434C17.7362 22.9064 23.7543 29.3694 30.179 31.5131M16.441 47.5562C22.8935 46.2659 29.3458 40.2653 31.5 33.8524M47.559 16.4438C41.1065 17.7341 34.6542 23.7347 32.5 30.1476M11 9H9V11M53 9H55V11M11 55H9V53M55 53V55H53M2 8V56L8 62H56L62 56V8L56 2H8L2 8ZM34 32C34 33.1046 33.1046 34 32 34C30.8954 34 30 33.1046 30 32C30 30.8954 30.8954 30 32 30C33.1046 30 34 30.8954 34 32Z" stroke="#141414" stroke-linejoin="bevel"/>
</svg>
